<svg width="235" height="91" viewBox="0 0 235 91" fill="none" xmlns="http://www.w3.org/2000/svg">
<rect width="235" height="91" fill="#2C70FF"/>
<path d="M25.72 69.288C24.792 69.288 24.04 69 23.464 68.424C22.92 67.848 22.648 67.096 22.648 66.168V38.088C22.648 37.16 22.904 36.44 23.416 35.928C23.96 35.416 24.696 35.16 25.624 35.16H42.472C44.424 35.16 45.4 35.992 45.4 37.656C45.4 39.288 44.424 40.104 42.472 40.104H28.744V49.32H41.512C43.464 49.32 44.44 50.152 44.44 51.816C44.44 53.448 43.464 54.264 41.512 54.264H28.744V66.168C28.744 67.096 28.472 67.848 27.928 68.424C27.384 69 26.648 69.288 25.72 69.288ZM54.2054 69.288C53.3414 69.288 52.6214 69.048 52.0454 68.568C51.5014 68.056 51.2294 67.336 51.2294 66.408V37.752C51.2294 36.824 51.5014 36.12 52.0454 35.64C52.6214 35.16 53.3414 34.92 54.2054 34.92C55.0694 34.92 55.7894 35.16 56.3654 35.64C56.9414 36.12 57.2294 36.824 57.2294 37.752V66.408C57.2294 67.336 56.9414 68.056 56.3654 68.568C55.7894 69.048 55.0694 69.288 54.2054 69.288ZM81.9929 62.568C82.5369 62.568 82.9689 62.776 83.2889 63.192C83.6409 63.608 83.8169 64.168 83.8169 64.872C83.8169 65.864 83.2249 66.696 82.0409 67.368C80.9529 67.976 79.7209 68.472 78.3449 68.856C76.9689 69.208 75.6569 69.384 74.4089 69.384C70.6329 69.384 67.6409 68.296 65.4329 66.12C63.2249 63.944 62.1209 60.968 62.1209 57.192C62.1209 54.792 62.6009 52.664 63.5609 50.808C64.5209 48.952 65.8649 47.512 67.5929 46.488C69.3529 45.464 71.3369 44.952 73.5449 44.952C75.6569 44.952 77.4969 45.416 79.0649 46.344C80.6329 47.272 81.8489 48.584 82.7129 50.28C83.5769 51.976 84.0089 53.976 84.0089 56.28C84.0089 57.656 83.4009 58.344 82.1849 58.344H68.0249C68.2169 60.552 68.8409 62.184 69.8969 63.24C70.9529 64.264 72.4889 64.776 74.5049 64.776C75.5289 64.776 76.4249 64.648 77.1929 64.392C77.9929 64.136 78.8889 63.784 79.8809 63.336C80.8409 62.824 81.5449 62.568 81.9929 62.568ZM73.6889 49.176C72.0569 49.176 70.7449 49.688 69.7529 50.712C68.7929 51.736 68.2169 53.208 68.0249 55.128H78.8729C78.8089 53.176 78.3289 51.704 77.4329 50.712C76.5369 49.688 75.2889 49.176 73.6889 49.176ZM108.8 64.584C109.376 65.16 109.664 65.816 109.664 66.552C109.664 67.256 109.392 67.896 108.848 68.472C108.304 69.016 107.664 69.288 106.928 69.288C106.128 69.288 105.44 68.952 104.864 68.28L98.0961 60.792L91.3281 68.28C90.7201 68.92 90.0321 69.24 89.2641 69.24C88.5601 69.24 87.9361 68.968 87.3921 68.424C86.8481 67.88 86.5761 67.256 86.5761 66.552C86.5761 65.816 86.8641 65.16 87.4401 64.584L94.4481 56.952L87.8241 49.752C87.2481 49.176 86.9601 48.52 86.9601 47.784C86.9601 47.048 87.2321 46.424 87.7761 45.912C88.3201 45.368 88.9441 45.096 89.6481 45.096C90.4161 45.096 91.1041 45.416 91.7121 46.056L98.0961 53.064L104.48 46.056C105.088 45.416 105.776 45.096 106.544 45.096C107.28 45.096 107.904 45.368 108.416 45.912C108.96 46.424 109.232 47.048 109.232 47.784C109.232 48.52 108.944 49.176 108.368 49.752L101.744 56.952L108.8 64.584ZM135.355 51.528C137.307 52.072 138.811 53.064 139.867 54.504C140.955 55.944 141.499 57.704 141.499 59.784C141.499 62.664 140.459 64.92 138.379 66.552C136.331 68.184 133.499 69 129.883 69H117.499C116.571 69 115.835 68.744 115.291 68.232C114.779 67.72 114.523 67 114.523 66.072V38.088C114.523 37.16 114.779 36.44 115.291 35.928C115.835 35.416 116.571 35.16 117.499 35.16H129.403C132.923 35.16 135.675 35.944 137.659 37.512C139.675 39.048 140.683 41.208 140.683 43.992C140.683 45.784 140.203 47.336 139.243 48.648C138.315 49.96 137.019 50.92 135.355 51.528ZM120.571 49.416H128.395C132.651 49.416 134.779 47.832 134.779 44.664C134.779 43.064 134.251 41.88 133.195 41.112C132.139 40.344 130.539 39.96 128.395 39.96H120.571V49.416ZM129.211 64.2C131.451 64.2 133.083 63.8 134.107 63C135.131 62.2 135.643 60.952 135.643 59.256C135.643 57.56 135.115 56.296 134.059 55.464C133.035 54.632 131.419 54.216 129.211 54.216H120.571V64.2H129.211ZM149.737 69.288C148.873 69.288 148.153 69.048 147.577 68.568C147.033 68.056 146.761 67.336 146.761 66.408V37.752C146.761 36.824 147.033 36.12 147.577 35.64C148.153 35.16 148.873 34.92 149.737 34.92C150.601 34.92 151.321 35.16 151.897 35.64C152.473 36.12 152.761 36.824 152.761 37.752V66.408C152.761 67.336 152.473 68.056 151.897 68.568C151.321 69.048 150.601 69.288 149.737 69.288ZM169.652 69.384C167.252 69.384 165.14 68.888 163.316 67.896C161.524 66.904 160.132 65.48 159.14 63.624C158.148 61.768 157.652 59.608 157.652 57.144C157.652 54.68 158.148 52.536 159.14 50.712C160.132 48.856 161.524 47.432 163.316 46.44C165.14 45.448 167.252 44.952 169.652 44.952C172.052 44.952 174.148 45.448 175.94 46.44C177.764 47.432 179.156 48.856 180.116 50.712C181.108 52.536 181.604 54.68 181.604 57.144C181.604 59.608 181.108 61.768 180.116 63.624C179.156 65.48 177.764 66.904 175.94 67.896C174.148 68.888 172.052 69.384 169.652 69.384ZM169.604 64.728C171.556 64.728 173.044 64.088 174.068 62.808C175.092 61.528 175.604 59.64 175.604 57.144C175.604 54.68 175.092 52.808 174.068 51.528C173.044 50.216 171.572 49.56 169.652 49.56C167.732 49.56 166.244 50.216 165.188 51.528C164.164 52.808 163.652 54.68 163.652 57.144C163.652 59.64 164.164 61.528 165.188 62.808C166.212 64.088 167.684 64.728 169.604 64.728ZM206.43 45.048C207.326 45.048 208.046 45.304 208.59 45.816C209.134 46.328 209.406 47.016 209.406 47.88V66.84C209.406 70.52 208.382 73.304 206.334 75.192C204.286 77.08 201.262 78.024 197.262 78.024C193.774 78.024 190.862 77.368 188.526 76.056C187.342 75.352 186.75 74.504 186.75 73.512C186.75 72.808 186.91 72.248 187.23 71.832C187.582 71.416 188.03 71.208 188.574 71.208C188.862 71.208 189.214 71.272 189.63 71.4C190.046 71.56 190.478 71.736 190.926 71.928C192.078 72.408 193.102 72.776 193.998 73.032C194.926 73.288 195.982 73.416 197.166 73.416C201.358 73.416 203.454 71.368 203.454 67.272V64.2C202.75 65.512 201.726 66.536 200.382 67.272C199.038 67.976 197.502 68.328 195.773 68.328C193.726 68.328 191.902 67.848 190.302 66.888C188.734 65.896 187.502 64.52 186.605 62.76C185.71 61 185.262 58.968 185.262 56.664C185.262 54.36 185.694 52.328 186.558 50.568C187.454 48.776 188.702 47.4 190.302 46.44C191.902 45.448 193.726 44.952 195.773 44.952C197.502 44.952 199.038 45.32 200.382 46.056C201.726 46.76 202.75 47.768 203.454 49.08V47.832C203.454 47 203.726 46.328 204.27 45.816C204.814 45.304 205.534 45.048 206.43 45.048ZM197.358 63.672C199.278 63.672 200.766 63.048 201.822 61.8C202.91 60.552 203.454 58.84 203.454 56.664C203.454 54.456 202.91 52.728 201.822 51.48C200.766 50.232 199.278 49.608 197.358 49.608C195.47 49.608 193.982 50.232 192.894 51.48C191.806 52.728 191.262 54.456 191.262 56.664C191.262 58.84 191.806 60.552 192.894 61.8C193.982 63.048 195.47 63.672 197.358 63.672Z" fill="white"/>
</svg>
